# xmcd CD database file
#
# Track frame offsets:
#	150
#	16070
#	32547
#	56031
#	71296
#	87727
#	104341
#	121149
#	138227
#	150959
#
# Disc length: 2207 seconds
#
# Revision: 0
# Processed by: cddbd v1.5.2PL0 Copyright (c) Steve Scherf et al.
# Submitted via: CDex 1.51
#
DISCID=74089d0a
DTITLE=David Sheriff - Learn to LINE DANCE at home Vol. 2
DYEAR=2011
DGENRE=Country
TTITLE0=In the Caribbean
TTITLE1=Alamo
TTITLE2=Viva Costa Blanca
TTITLE3=Fifty and Greyin
TTITLE4=My new found friend
TTITLE5=Beautiful day
TTITLE6=Mum secound to none
TTITLE7=Overworked and Underpaid
TTITLE8=Hearts and Flowers
TTITLE9=Reel away
EXTD=YEAR: 2011
EXTT0=
EXTT1=
EXTT2=
EXTT3=
EXTT4=
EXTT5=
EXTT6=
EXTT7=
EXTT8=
EXTT9=
PLAYORDER=
